# xmcd
#
# Track frame offsets:
# 150
# 14277
# 32697
# 47035
# 63447
# 78005
# 97207
# 113497
# 126317
# 138487
# 153530
# 166717
# 181112
# 197867
#
# Disc length: 2851 seconds
#
#
# Revision: 0
# Processed by: cddbd v1.5.2PL0 Copyright (c) Steve Scherf et al.
# Submitted via: FreeRIP 2.951 
#
DISCID=b20b210e
DTITLE=AS 100 MAIS SERTANEJAS - CD 3
DYEAR=1900
DGENRE=SERTANEJO
TTITLE0=AZUL
TTITLE1=CHOVENDO ESTRELAS
TTITLE2=PROGRAMA DE FIM DE SEMANA
TTITLE3=CLIMA DE RODEIO
TTITLE4=BOTO PRA REMEXER
TTITLE5=NUVEM DE LAGRIMAS
TTITLE6=FIM DE SEMANA
TTITLE7=PAGODE EM BRASILIA
TTITLE8=FERIADO NACIONAL
TTITLE9=DENGO
TTITLE10=BATE O PE
TTITLE11=GALERA CORACAO
TTITLE12=COMO EU TE AMO
TTITLE13=NOIS E CAUBOI ( NOIS E XIKI NU URTIMO )
EXTD=
EXTT0=
EXTT1=
EXTT2=
EXTT3=
EXTT4=
EXTT5=
EXTT6=
EXTT7=
EXTT8=
EXTT9=
EXTT10=
EXTT11=
EXTT12=
EXTT13=
PLAYORDER=
